<svg xmlns="http://www.w3.org/2000/svg">
  
    <symbol viewBox="0 0 117 12" id="logo">
        <path d="M.807.273h1.21l2.42 4.074h.103L6.96.273h1.21l-3.153 5.13V9H3.96V5.403L.807.273zm10.327 8.863c-.59 0-1.11-.14-1.555-.422a2.866 2.866 0 01-1.04-1.18c-.247-.506-.37-1.096-.37-1.773 0-.681.123-1.277.37-1.785A2.86 2.86 0 019.58 2.79c.446-.281.964-.422 1.555-.422s1.108.14 1.551.422c.446.281.793.676 1.04 1.185.25.508.375 1.104.375 1.785 0 .676-.125 1.267-.375 1.773-.247.506-.594.9-1.04 1.18-.443.282-.96.422-1.55.422zm0-.903c.45 0 .818-.115 1.108-.345.29-.23.504-.533.644-.908a3.48 3.48 0 00.209-1.219c0-.437-.07-.845-.21-1.223a2.062 2.062 0 00-.643-.916c-.29-.233-.659-.35-1.108-.35-.449 0-.818.117-1.108.35-.29.233-.504.539-.643.916a3.51 3.51 0 00-.209 1.223c0 .438.07.844.209 1.22.139.374.354.677.643.907.29.23.66.345 1.108.345zm8.626-1.91V2.456h1.006V9H19.76V7.892h-.068a2.147 2.147 0 01-.716.848c-.324.23-.733.345-1.227.345-.41 0-.773-.09-1.091-.268a1.879 1.879 0 01-.75-.818c-.182-.367-.273-.829-.273-1.385v-4.16h1.006v4.091c0 .478.134.858.4 1.143.27.284.614.426 1.032.426.25 0 .504-.064.763-.192.26-.128.48-.324.656-.588.179-.264.268-.601.268-1.01zm8.694 2.813a2.563 2.563 0 01-1.444-.413c-.418-.278-.744-.67-.98-1.176-.236-.509-.354-1.11-.354-1.803 0-.687.118-1.284.354-1.79.236-.505.564-.896.984-1.171.42-.276.907-.414 1.458-.414.426 0 .762.071 1.01.213.25.14.44.299.57.478.134.176.238.32.312.434h.085V.273h1.005V9h-.971V7.994h-.12a5.85 5.85 0 01-.315.452c-.136.179-.33.34-.583.482-.253.139-.59.208-1.01.208zm.137-.903c.403 0 .744-.105 1.023-.315.278-.213.49-.507.635-.882a3.64 3.64 0 00.217-1.309c0-.488-.071-.916-.213-1.282a1.866 1.866 0 00-.63-.861c-.28-.208-.623-.311-1.032-.311-.426 0-.781.11-1.065.328a1.96 1.96 0 00-.635.882c-.14.37-.21.784-.21 1.244 0 .466.072.89.214 1.27.145.378.358.68.64.904.283.221.636.332 1.056.332zm7.504.903c-.59 0-1.11-.14-1.555-.422a2.866 2.866 0 01-1.04-1.18c-.247-.506-.37-1.096-.37-1.773 0-.681.123-1.277.37-1.785a2.86 2.86 0 011.04-1.185c.446-.281.964-.422 1.555-.422s1.108.14 1.551.422c.446.281.793.676 1.04 1.185.25.508.375 1.104.375 1.785 0 .676-.125 1.267-.375 1.773-.247.506-.594.9-1.04 1.18-.443.282-.96.422-1.55.422zm0-.903c.449 0 .818-.115 1.108-.345.29-.23.504-.533.644-.908.139-.375.208-.781.208-1.219 0-.437-.07-.845-.208-1.223a2.061 2.061 0 00-.644-.916c-.29-.233-.659-.35-1.108-.35-.449 0-.818.117-1.108.35a2.06 2.06 0 00-.643.916c-.14.378-.21.786-.21 1.223 0 .438.07.844.21 1.22.139.374.353.677.643.907.29.23.66.345 1.108.345zm5.507-3.17V9h-1.006V2.455h.972v1.022h.085c.154-.332.386-.6.699-.8.312-.205.716-.308 1.21-.308.443 0 .831.091 1.163.273.333.179.591.452.776.818.185.364.277.824.277 1.38V9h-1.006V4.91c0-.515-.133-.916-.4-1.203-.267-.29-.634-.434-1.1-.434-.32 0-.608.07-.86.209-.25.139-.448.342-.593.609-.145.267-.217.59-.217.971zm6.883-4.79v3h-.937v-3h.937zm4.638 2.182v.852H49.73v-.852h3.392zM50.719.886h1.006v6.239c0 .284.041.497.123.64a.64.64 0 00.324.28 1.3 1.3 0 00.422.069c.11 0 .202-.006.273-.017l.17-.034.205.903a2.04 2.04 0 01-.286.077 2.102 2.102 0 01-.464.042c-.284 0-.563-.06-.835-.183a1.66 1.66 0 01-.674-.558c-.176-.25-.264-.566-.264-.946V.886zm9.763 8.25a2.563 2.563 0 01-1.445-.413c-.417-.278-.744-.67-.98-1.176-.236-.509-.354-1.11-.354-1.803 0-.687.118-1.284.354-1.79.236-.505.564-.896.984-1.171.421-.276.907-.414 1.458-.414.426 0 .763.071 1.01.213.25.14.44.299.57.478.134.176.238.32.312.434h.085V.273h1.006V9h-.972V7.994h-.119c-.074.12-.179.27-.315.452a1.87 1.87 0 01-.584.482c-.253.139-.59.208-1.01.208zm.136-.903c.404 0 .745-.105 1.023-.315.278-.213.49-.507.635-.882.145-.378.217-.814.217-1.309 0-.488-.07-.916-.213-1.282a1.867 1.867 0 00-.63-.861c-.279-.208-.623-.311-1.032-.311-.426 0-.781.11-1.065.328-.281.216-.493.51-.635.882a3.49 3.49 0 00-.209 1.244c0 .466.071.89.213 1.27.145.378.358.68.64.904.284.221.636.332 1.056.332zm7.505.903c-.591 0-1.11-.14-1.556-.422a2.866 2.866 0 01-1.04-1.18c-.247-.506-.37-1.096-.37-1.773 0-.681.123-1.277.37-1.785a2.86 2.86 0 011.04-1.185c.446-.281.965-.422 1.556-.422.59 0 1.108.14 1.55.422a2.81 2.81 0 011.04 1.185c.25.508.375 1.104.375 1.785 0 .676-.125 1.267-.375 1.773-.247.506-.593.9-1.04 1.18-.442.282-.96.422-1.55.422zm0-.903c.448 0 .818-.115 1.108-.345.29-.23.504-.533.643-.908.14-.375.209-.781.209-1.219 0-.437-.07-.845-.21-1.223a2.062 2.062 0 00-.642-.916c-.29-.233-.66-.35-1.108-.35-.45 0-.819.117-1.108.35-.29.233-.505.539-.644.916a3.51 3.51 0 00-.209 1.223c0 .438.07.844.21 1.22.138.374.353.677.643.907.29.23.659.345 1.108.345zm10.62.903c-.63 0-1.175-.139-1.632-.417a2.803 2.803 0 01-1.053-1.176c-.244-.506-.366-1.094-.366-1.765 0-.67.122-1.26.366-1.772a2.888 2.888 0 011.031-1.202c.444-.29.96-.435 1.552-.435.34 0 .677.057 1.01.17.332.114.635.3.907.555.273.253.49.588.652 1.005.162.418.243.932.243 1.543v.426h-5.045v-.87h4.022c0-.368-.074-.698-.221-.988a1.67 1.67 0 00-.622-.686 1.742 1.742 0 00-.946-.251c-.4 0-.748.1-1.04.298a1.97 1.97 0 00-.67.767 2.254 2.254 0 00-.234 1.014v.58c0 .494.086.913.256 1.257.173.34.413.6.72.78a2.11 2.11 0 001.07.264 2.2 2.2 0 00.716-.11c.216-.078.402-.191.558-.342a1.55 1.55 0 00.362-.57l.972.272c-.102.33-.274.62-.516.87-.241.246-.54.44-.895.579a3.319 3.319 0 01-1.197.204zm5.246-4.073V9h-1.006V2.455h.971v1.022h.086c.153-.332.386-.6.699-.8.312-.205.715-.308 1.21-.308.443 0 .83.091 1.163.273.333.179.591.452.776.818.184.364.277.824.277 1.38V9h-1.006V4.91c0-.515-.133-.916-.4-1.203-.267-.29-.634-.434-1.1-.434-.32 0-.608.07-.86.209-.25.139-.448.342-.593.609-.145.267-.217.59-.217.971zm8.673 4.073c-.591 0-1.11-.14-1.556-.422a2.866 2.866 0 01-1.04-1.18c-.247-.506-.37-1.096-.37-1.773 0-.681.123-1.277.37-1.785a2.86 2.86 0 011.04-1.185c.446-.281.965-.422 1.556-.422.59 0 1.107.14 1.55.422a2.81 2.81 0 011.04 1.185c.25.508.376 1.104.376 1.785 0 .676-.126 1.267-.376 1.773-.247.506-.593.9-1.04 1.18-.443.282-.96.422-1.55.422zm0-.903c.448 0 .818-.115 1.107-.345.29-.23.505-.533.644-.908.14-.375.209-.781.209-1.219 0-.437-.07-.845-.209-1.223a2.061 2.061 0 00-.644-.916c-.29-.233-.659-.35-1.107-.35-.45 0-.819.117-1.108.35a2.06 2.06 0 00-.644.916 3.51 3.51 0 00-.209 1.223c0 .438.07.844.21 1.22.138.374.353.677.643.907.29.23.659.345 1.108.345zm8.626-1.91V2.456h1.005V9h-1.005V7.892h-.069a2.149 2.149 0 01-.715.848c-.324.23-.733.345-1.228.345-.409 0-.772-.09-1.09-.268a1.879 1.879 0 01-.75-.818c-.182-.367-.273-.829-.273-1.385v-4.16h1.005v4.091c0 .478.134.858.4 1.143.27.284.615.426 1.032.426.25 0 .504-.064.763-.192.261-.128.48-.324.656-.588.179-.264.269-.601.269-1.01zm5.489 5.268c-.485 0-.903-.063-1.252-.188a2.656 2.656 0 01-.874-.485 2.674 2.674 0 01-.55-.64l.801-.562c.091.12.206.256.346.409.139.156.329.291.571.405.244.116.563.175.958.175.529 0 .965-.128 1.309-.384.343-.256.515-.656.515-1.202V7.79h-.085c-.074.12-.179.268-.315.444a1.794 1.794 0 01-.58.464c-.25.134-.588.2-1.014.2a2.728 2.728 0 01-1.423-.374 2.627 2.627 0 01-.993-1.091c-.242-.477-.363-1.057-.363-1.739 0-.67.118-1.254.354-1.751.236-.5.564-.887.985-1.16.42-.275.906-.413 1.457-.413.426 0 .764.071 1.014.213.253.14.446.299.58.478.136.176.241.32.315.434h.102v-1.04h.972v6.734c0 .562-.128 1.02-.384 1.372a2.178 2.178 0 01-1.022.78 3.861 3.861 0 01-1.424.25zm-.034-3.597c.404 0 .745-.092 1.023-.277.278-.184.49-.45.635-.797.145-.346.217-.76.217-1.244 0-.471-.071-.888-.213-1.248a1.875 1.875 0 00-.63-.848c-.279-.205-.623-.307-1.032-.307-.426 0-.781.108-1.065.324a1.974 1.974 0 00-.635.869 3.365 3.365 0 00-.209 1.21c0 .455.071.857.213 1.206.145.347.358.62.639.818.285.196.637.294 1.057.294zm5.71-2.931V9h-1.005V.273h1.005v3.204h.086c.153-.338.383-.606.69-.805.31-.202.722-.303 1.236-.303.446 0 .836.09 1.172.269.335.176.595.447.78.814.187.363.281.826.281 1.389V9h-1.006V4.91c0-.52-.135-.923-.405-1.207-.267-.287-.637-.43-1.112-.43-.329 0-.625.07-.886.209a1.524 1.524 0 00-.614.609c-.148.267-.222.59-.222.971z" fill="#000"/>
    </symbol>

</svg>